REM MD5 6dff65684508580cf60a51dd504238d5
FILE "Interactive CD Sampler Disc Vol. 9 (USA) (SCUS-94295).bin" BINARY
  TRACK 01 MODE2/2352
    INDEX 01 00:00:00
  TRACK 02 AUDIO
    INDEX 00 61:52:32
    INDEX 01 61:54:32
  TRACK 03 AUDIO
    INDEX 00 63:46:34
    INDEX 01 63:48:34
  TRACK 04 AUDIO
    INDEX 00 64:46:74
    INDEX 01 64:48:74
  TRACK 05 AUDIO
    INDEX 00 69:07:15
    INDEX 01 69:09:15
REM LEADOUT 69:15:11
